# xmcd CD database file
#
# Track frame offsets:
#	150
#	22951
#	55513
#	86659
#	106593
#	139103
#	159188
#	197002
#	229554
#	257328
#	281998
#
# Disc length: 4123 seconds
#
# Revision: 0
# Processed by: cddbd v1.5.1PL0 Copyright (c) Steve Scherf et al.
# Submitted via: CDex 1.51
#
DISCID=7f10190b
DTITLE=Serrano and Lechner - Sesión Contínua
DYEAR=2004
DGENRE=Jazz
TTITLE0=Kalashnikov
TTITLE1=The Godfather
TTITLE2=Sesame Street Theme
TTITLE3=Das Boot
TTITLE4=The Summer Knows
TTITLE5=Ataque Verbal
TTITLE6=El Día que me Quieras
TTITLE7=L'heure des Nuages
TTITLE8=Bullit
TTITLE9=Johnny Guitar
TTITLE10=Schindler's List
EXTD=YEAR: 2004
EXTT0=
EXTT1=
EXTT2=
EXTT3=
EXTT4=
EXTT5=
EXTT6=
EXTT7=
EXTT8=
EXTT9=
EXTT10=
PLAYORDER=
